# xmcd CD database file
#
# Track frame offsets:
#	150
#	14715
#	29570
#	46707
#
# Disc length: 813 seconds
#
# Revision: 0
# Processed by: cddbd v1.5.2PL0 Copyright (c) Steve Scherf et al.
# Submitted via: CDex 1.51
#
DISCID=2c032b04
DTITLE=Maiden Texas - Maiden Texas EP
DYEAR=1900
DGENRE=Country
TTITLE0=What Do We Do
TTITLE1=Right There
TTITLE2=When I Close My Eyes
TTITLE3=Here's The Deal
EXTD=
EXTT0=
EXTT1=
EXTT2=
EXTT3=
PLAYORDER=
